# xmcd
#
# Track frame offsets:
#	150
#	17776
#	33923
#	51939
#	71620
#	85089
#	103434
#	122003
#	137942
#	153991
#	168673
#	188523
#
# Disc length: 2862 seconds
#
# Revision: 0
# Processed by: cddbd v1.5.2PL0 Copyright (c) Steve Scherf et al.
# Submitted via: EasyCDDAExtractor 16.0.6.1
#
DISCID=a20b2c0c
DTITLE=Big and Rich - Hillbilly Jedi
DYEAR=2012
DGENRE=Country
TTITLE0=Born Again
TTITLE1=Party Like Cowboyz (Galactic Version)
TTITLE2=That's Why I Pray
TTITLE3=Lay it All on Me
TTITLE4=Last Words
TTITLE5=Rock the Boat
TTITLE6=Can't Be Satisfied
TTITLE7=Get Your Game on (Unleash the Beast Version)
TTITLE8='Cause I Play Guitar
TTITLE9=Cheat on You
TTITLE10=Never Far Away
TTITLE11=M-E-D-L-E-Y of the Hillbilly Jedi
EXTD=
EXTT0=
EXTT1=
EXTT2=
EXTT3=
EXTT4=
EXTT5=
EXTT6=
EXTT7=
EXTT8=
EXTT9=
EXTT10=
EXTT11=
PLAYORDER=
